# xmcd
# 
# Track frame offsets:
#     150
#     23417
#     59452
#     93700
#     111725
#     136897
#     159930
# 
# Disc length: 2403
# 
# Revision: 7
# Processed by: cddbd v1.5.2PL0 Copyright (c) Steve Scherf et al.
# Submitted via: fre:ac v1.0.27
# 
DISCID=58096107
DTITLE=Steely Dan e - Aja [Remastered 1999]
DYEAR=1977
DGENRE=Jazz Fusion
TTITLE0=Black Cow
TTITLE1=Aja
TTITLE2=Deacon Blues
TTITLE3=Peg
TTITLE4=Home at Last
TTITLE5=I Got the News
TTITLE6=Josie
EXTD=YEAR: 1977
EXTT0=
EXTT1=
EXTT2=
EXTT3=
EXTT4=
EXTT5=
EXTT6=
PLAYORDER=
